<svg width="60" height="60" viewBox="0 0 60 60" fill="none" xmlns="http://www.w3.org/2000/svg">
<path d="M30 30V47.5" stroke="white" stroke-width="3" stroke-linecap="round"/>
<path d="M30.0007 47.5C25.1192 47.5 20.8706 50.4518 18.6772 54.8061C17.6295 56.8859 19.1328 59.1667 21.1304 59.1667H38.8709C40.8685 59.1667 42.3718 56.8859 41.3241 54.8061C39.1307 50.4518 34.8821 47.5 30.0007 47.5Z" stroke="white" stroke-width="3" stroke-linecap="round"/>
<path d="M9.58398 9.58325H6.62272C3.74536 9.58325 2.30668 9.58325 1.41781 10.664C0.528931 11.7447 0.789596 12.9548 1.31093 15.3752C2.30672 19.9983 4.46664 24.0598 7.39327 27.0833" stroke="white" stroke-width="3" stroke-linecap="round"/>
<path d="M50.416 9.58325H53.3773C56.2546 9.58325 57.6933 9.58325 58.5822 10.664C59.4711 11.7447 59.2104 12.9548 58.6891 15.3752C57.6933 19.9983 55.5334 24.0598 52.6067 27.0833" stroke="white" stroke-width="3" stroke-linecap="round"/>
<path d="M30.0007 29.9999C41.2765 29.9999 50.4173 20.909 50.4173 9.6947C50.4173 9.40064 50.411 9.10804 50.3986 8.81702C50.274 5.9026 50.2116 4.44538 48.2365 2.63932C46.2613 0.833252 44.0728 0.833252 39.6958 0.833252H20.3055C15.9285 0.833252 13.74 0.833252 11.7648 2.63932C9.78965 4.44538 9.72734 5.90259 9.60271 8.81702C9.59027 9.10804 9.58398 9.40064 9.58398 9.6947C9.58398 20.909 18.7248 29.9999 30.0007 29.9999Z" stroke="white" stroke-width="3" stroke-linecap="round"/>
</svg>
