<svg width="60" height="60" viewBox="0 0 60 60" fill="none" xmlns="http://www.w3.org/2000/svg">
<path d="M30.0006 59.1666C13.8923 59.1666 0.833984 46.1082 0.833984 29.9999C0.833984 21.855 4.17256 14.4899 9.55589 9.19832M30.0006 59.1666C27.1918 57.0851 27.6402 54.6619 29.0494 52.2387C31.2158 48.5133 31.2158 48.5133 31.2158 43.5461C31.2158 38.5789 34.1673 36.2499 44.584 38.3333C49.2645 39.2694 52.6751 32.8025 58.7511 34.9379M30.0006 59.1666C44.4259 59.1666 56.4052 48.6945 58.7511 34.9379M58.7511 34.9379C59.0248 33.3328 59.1673 31.683 59.1673 29.9999C59.1673 15.7624 48.966 3.90755 35.4739 1.34597M35.4739 1.34597C36.9632 4.08821 36.3636 7.35348 33.2169 8.60028C28.084 10.6341 31.7591 14.3766 27.3858 16.6871C24.4702 18.2274 20.0968 17.8418 15.7235 13.2208C13.4199 10.7868 12.033 9.45973 9.55589 9.19832M35.4739 1.34597C33.7011 1.00939 31.8714 0.833252 30.0006 0.833252C22.0372 0.833252 14.8193 4.02469 9.55589 9.19832" stroke="white" stroke-width="3" stroke-linejoin="round"/>
</svg>
