<svg width="952" height="977" viewBox="0 0 952 977" fill="none" xmlns="http://www.w3.org/2000/svg">
<path d="M517.18 219.027C570.442 241.491 602.394 290.794 590.893 318.063C579.392 345.331 542.738 372.023 485.593 347.921C457.275 335.977 415.203 339.703 387.286 311.934C358.868 283.665 382.341 249.759 388.143 236.003C399.644 208.735 463.919 196.562 517.18 219.027Z" fill="#71BAFF"/>
<g filter="url(#filter0_f_3001_907)">
<path d="M515.557 221.093C572.678 245.186 602.532 288.573 592.646 312.012C582.76 335.451 548.235 357.121 491.113 333.028C462.806 321.089 421.571 322.871 392.863 297.014C363.64 270.693 384.908 242.008 389.895 230.185C399.781 206.745 458.435 197.001 515.557 221.093Z" fill="#71BAFF"/>
</g>
<g filter="url(#filter1_f_3001_907)">
<path d="M517.286 221.823C581.308 248.826 613.533 300.384 601.344 329.282C589.156 358.179 549.006 385.914 484.984 358.911C453.257 345.53 405.136 352.044 373.512 321.755C341.32 290.923 367.699 252.745 373.847 238.168C386.035 209.27 453.263 194.82 517.286 221.823Z" fill="#71BAFF"/>
</g>
<g filter="url(#filter2_f_3001_907)">
<path d="M523.232 228.362C599.287 268.789 648.954 333.885 634.689 367.706C620.424 401.527 564.884 421.168 488.102 388.783C450.052 372.735 385.592 388.966 347.49 353.057C308.703 316.503 338.622 274.789 345.818 257.728C360.083 223.907 435.127 181.529 523.232 228.362Z" fill="#71BAFF"/>
</g>
<g filter="url(#filter3_f_3001_907)">
<path d="M544.091 253.282C626.765 288.151 679.56 361.745 665.613 394.812C651.667 427.879 593.391 445.407 510.717 410.537C469.748 393.257 414.681 384.896 372.951 347.9C330.472 310.239 360.761 269.891 367.796 253.211C381.743 220.144 461.417 218.412 544.091 253.282Z" fill="#71BAFF"/>
</g>
<g filter="url(#filter4_f_3001_907)">
<path d="M570.701 280.052C656.137 316.087 710.891 391.678 696.626 425.499C682.361 459.319 622.299 477.053 536.863 441.018C494.525 423.162 437.675 414.387 394.478 376.329C350.504 337.588 381.603 296.371 388.798 279.31C403.063 245.49 485.265 244.018 570.701 280.052Z" fill="#71BAFF"/>
</g>
<g filter="url(#filter5_f_3001_907)">
<path d="M508.711 247.571C583.468 279.102 629.027 350.815 614.763 384.636C600.498 418.456 546.016 438.544 471.259 407.013C434.213 391.389 385.439 381.414 348.529 346.008C310.956 309.966 340.599 268.135 347.795 251.074C362.06 217.254 433.954 216.041 508.711 247.571Z" fill="#71BAFF"/>
</g>
<path d="M685.132 462.95C688.511 520.656 658.398 571.104 628.854 572.834C599.31 574.564 559.171 553.475 555.545 491.561C553.748 460.879 531.817 424.783 544.395 387.469C557.199 349.485 597.988 355.563 612.891 354.691C642.435 352.961 681.753 405.244 685.132 462.95Z" fill="#71BAFF"/>
<g filter="url(#filter6_f_3001_907)">
<path d="M682.563 462.407C686.187 524.296 660.454 570.247 635.059 571.734C609.664 573.221 574.97 551.822 571.346 489.934C569.55 459.265 549.733 423.06 560.245 385.882C570.947 348.036 606.077 354.442 618.887 353.692C644.282 352.205 678.939 400.518 682.563 462.407Z" fill="#71BAFF"/>
</g>
<g filter="url(#filter7_f_3001_907)">
<path d="M682.671 464.282C686.733 533.647 654.717 585.335 623.407 587.168C592.098 589.002 549.478 565.237 545.416 495.872C543.403 461.498 516.299 421.205 529.499 379.453C542.936 336.951 588.84 343.749 604.634 342.824C635.943 340.99 678.609 394.916 682.671 464.282Z" fill="#71BAFF"/>
</g>
<g filter="url(#filter8_f_3001_907)">
<path d="M679.432 472.504C676.767 558.595 640.313 631.912 603.67 634.058C567.027 636.203 524.868 595.056 519.996 511.866C517.582 470.641 474.542 419.985 489.921 369.938C505.577 318.992 556.218 327.403 574.703 326.32C611.346 324.175 682.519 372.773 679.432 472.504Z" fill="#71BAFF"/>
</g>
<g filter="url(#filter9_f_3001_907)">
<path d="M666.292 502.227C671.537 591.8 628.842 671.678 593.015 673.776C557.189 675.874 515.718 631.339 510.473 541.765C507.873 497.377 491.045 444.282 505.797 390.501C520.815 335.753 570.392 345.099 588.465 344.04C624.292 341.942 661.047 412.653 666.292 502.227Z" fill="#71BAFF"/>
</g>
<g filter="url(#filter10_f_3001_907)">
<path d="M654.034 537.927C659.455 630.493 615.833 713.01 579.19 715.156C542.547 717.302 500.101 671.255 494.68 578.689C491.994 532.818 474.748 477.941 489.805 422.373C505.131 365.808 555.847 375.496 574.332 374.414C610.975 372.268 648.614 445.361 654.034 537.927Z" fill="#71BAFF"/>
</g>
<g filter="url(#filter11_f_3001_907)">
<path d="M655.783 467.964C660.526 548.959 616.321 621.515 579.678 623.661C543.035 625.807 500.943 585.806 496.2 504.81C493.85 464.673 481.249 416.51 496.704 367.755C512.437 318.124 563.06 326.236 581.545 325.153C618.188 323.008 651.04 386.969 655.783 467.964Z" fill="#71BAFF"/>
</g>
<path d="M566.507 705.883C516.446 734.786 450.257 717.344 428.65 679.921C407.044 642.498 398.955 581.687 452.666 550.677C479.282 535.31 497.156 491.635 539.538 492.014C582.681 492.399 604.83 547.666 615.729 566.544C637.335 603.967 616.568 676.981 566.507 705.883Z" fill="#71BAFF"/>
<g filter="url(#filter12_f_3001_907)">
<path d="M565.256 702.332C511.567 733.329 452.427 719.633 433.855 687.465C415.283 655.297 411.167 601.388 464.856 570.391C491.462 555.03 510.868 514.039 551.726 511.808C593.318 509.537 611.331 557.634 620.7 573.861C639.272 606.029 618.945 671.334 565.256 702.332Z" fill="#71BAFF"/>
</g>
<g filter="url(#filter13_f_3001_907)">
<path d="M563.629 703.27C503.454 738.012 434.849 718.64 411.952 678.981C389.055 639.323 381.71 574.17 441.885 539.428C471.705 522.212 489.877 470.071 536.707 469.366C584.379 468.648 609.344 530.826 620.894 550.832C643.791 590.491 623.804 668.528 563.629 703.27Z" fill="#71BAFF"/>
</g>
<g filter="url(#filter14_f_3001_907)">
<path d="M553.974 702.583C474.064 735.749 382.826 719.842 356.028 673.426C329.23 627.011 337.969 555.063 410.137 513.396C445.899 492.749 462.666 415.618 518.5 414.201C575.337 412.758 602.051 481.741 615.569 505.156C642.367 551.571 646.547 664.162 553.974 702.583Z" fill="#71BAFF"/>
</g>
<g filter="url(#filter15_f_3001_907)">
<path d="M518.098 698.25C440.392 743.114 338.969 721.935 312.768 676.554C286.568 631.174 298.846 558.673 376.552 513.809C415.059 491.577 451.814 447.265 510.611 443.45C570.465 439.566 595.609 507.574 608.826 530.466C635.027 575.847 595.804 653.387 518.098 698.25Z" fill="#71BAFF"/>
</g>
<g filter="url(#filter16_f_3001_907)">
<path d="M477.395 697.597C397.093 743.96 292.648 722.707 265.85 676.292C239.052 629.877 252.04 555.474 332.342 509.112C372.136 486.137 410.225 440.528 470.848 436.346C532.56 432.088 558.166 501.711 571.684 525.126C598.482 571.541 557.697 651.235 477.395 697.597Z" fill="#71BAFF"/>
</g>
<g filter="url(#filter17_f_3001_907)">
<path d="M542.055 670.108C471.791 710.675 375.987 684.434 349.189 638.018C322.391 591.603 330.135 520.229 400.399 479.662C435.218 459.559 470.367 422.803 525.08 422.033C580.776 421.249 607.75 490.082 621.268 513.497C648.066 559.912 612.319 629.541 542.055 670.108Z" fill="#71BAFF"/>
</g>
<defs>
<filter id="filter0_f_3001_907" x="370.21" y="199.593" width="231.846" height="151.498" filterUnits="userSpaceOnUse" color-interpolation-filters="sRGB">
<feFlood flood-opacity="0" result="BackgroundImageFix"/>
<feBlend mode="normal" in="SourceGraphic" in2="BackgroundImageFix" result="shape"/>
<feGaussianBlur stdDeviation="3.76999" result="effect1_foregroundBlur_3001_907"/>
</filter>
<filter id="filter1_f_3001_907" x="331.45" y="181.117" width="298.827" height="215.175" filterUnits="userSpaceOnUse" color-interpolation-filters="sRGB">
<feFlood flood-opacity="0" result="BackgroundImageFix"/>
<feBlend mode="normal" in="SourceGraphic" in2="BackgroundImageFix" result="shape"/>
<feGaussianBlur stdDeviation="13.195" result="effect1_foregroundBlur_3001_907"/>
</filter>
<filter id="filter2_f_3001_907" x="290.318" y="169.904" width="384.513" height="273.093" filterUnits="userSpaceOnUse" color-interpolation-filters="sRGB">
<feFlood flood-opacity="0" result="BackgroundImageFix"/>
<feBlend mode="normal" in="SourceGraphic" in2="BackgroundImageFix" result="shape"/>
<feGaussianBlur stdDeviation="18.8499" result="effect1_foregroundBlur_3001_907"/>
</filter>
<filter id="filter3_f_3001_907" x="248.966" y="125.976" width="520.667" height="405.428" filterUnits="userSpaceOnUse" color-interpolation-filters="sRGB">
<feFlood flood-opacity="0" result="BackgroundImageFix"/>
<feBlend mode="normal" in="SourceGraphic" in2="BackgroundImageFix" result="shape"/>
<feGaussianBlur stdDeviation="50.8948" result="effect1_foregroundBlur_3001_907"/>
</filter>
<filter id="filter4_f_3001_907" x="118.819" y="0.89566" width="832.651" height="712.574" filterUnits="userSpaceOnUse" color-interpolation-filters="sRGB">
<feFlood flood-opacity="0" result="BackgroundImageFix"/>
<feBlend mode="normal" in="SourceGraphic" in2="BackgroundImageFix" result="shape"/>
<feGaussianBlur stdDeviation="126.295" result="effect1_foregroundBlur_3001_907"/>
</filter>
<filter id="filter5_f_3001_907" x="213.017" y="107.915" width="521.22" height="431.73" filterUnits="userSpaceOnUse" color-interpolation-filters="sRGB">
<feFlood flood-opacity="0" result="BackgroundImageFix"/>
<feBlend mode="normal" in="SourceGraphic" in2="BackgroundImageFix" result="shape"/>
<feGaussianBlur stdDeviation="58.4348" result="effect1_foregroundBlur_3001_907"/>
</filter>
<filter id="filter6_f_3001_907" x="549.648" y="346.119" width="140.799" height="233.227" filterUnits="userSpaceOnUse" color-interpolation-filters="sRGB">
<feFlood flood-opacity="0" result="BackgroundImageFix"/>
<feBlend mode="normal" in="SourceGraphic" in2="BackgroundImageFix" result="shape"/>
<feGaussianBlur stdDeviation="3.76999" result="effect1_foregroundBlur_3001_907"/>
</filter>
<filter id="filter7_f_3001_907" x="499.501" y="316.389" width="209.911" height="297.267" filterUnits="userSpaceOnUse" color-interpolation-filters="sRGB">
<feFlood flood-opacity="0" result="BackgroundImageFix"/>
<feBlend mode="normal" in="SourceGraphic" in2="BackgroundImageFix" result="shape"/>
<feGaussianBlur stdDeviation="13.195" result="effect1_foregroundBlur_3001_907"/>
</filter>
<filter id="filter8_f_3001_907" x="448.909" y="288.552" width="268.32" height="383.285" filterUnits="userSpaceOnUse" color-interpolation-filters="sRGB">
<feFlood flood-opacity="0" result="BackgroundImageFix"/>
<feBlend mode="normal" in="SourceGraphic" in2="BackgroundImageFix" result="shape"/>
<feGaussianBlur stdDeviation="18.8499" result="effect1_foregroundBlur_3001_907"/>
</filter>
<filter id="filter9_f_3001_907" x="398.021" y="242.205" width="370.501" height="533.431" filterUnits="userSpaceOnUse" color-interpolation-filters="sRGB">
<feFlood flood-opacity="0" result="BackgroundImageFix"/>
<feBlend mode="normal" in="SourceGraphic" in2="BackgroundImageFix" result="shape"/>
<feGaussianBlur stdDeviation="50.8948" result="effect1_foregroundBlur_3001_907"/>
</filter>
<filter id="filter10_f_3001_907" x="231.12" y="121.779" width="675.964" height="846.038" filterUnits="userSpaceOnUse" color-interpolation-filters="sRGB">
<feFlood flood-opacity="0" result="BackgroundImageFix"/>
<feBlend mode="normal" in="SourceGraphic" in2="BackgroundImageFix" result="shape"/>
<feGaussianBlur stdDeviation="126.295" result="effect1_foregroundBlur_3001_907"/>
</filter>
<filter id="filter11_f_3001_907" x="372.261" y="208.231" width="400.743" height="532.381" filterUnits="userSpaceOnUse" color-interpolation-filters="sRGB">
<feFlood flood-opacity="0" result="BackgroundImageFix"/>
<feBlend mode="normal" in="SourceGraphic" in2="BackgroundImageFix" result="shape"/>
<feGaussianBlur stdDeviation="58.4348" result="effect1_foregroundBlur_3001_907"/>
</filter>
<filter id="filter12_f_3001_907" x="413.741" y="504.19" width="221.226" height="223.11" filterUnits="userSpaceOnUse" color-interpolation-filters="sRGB">
<feFlood flood-opacity="0" result="BackgroundImageFix"/>
<feBlend mode="normal" in="SourceGraphic" in2="BackgroundImageFix" result="shape"/>
<feGaussianBlur stdDeviation="3.76999" result="effect1_foregroundBlur_3001_907"/>
</filter>
<filter id="filter13_f_3001_907" x="368.784" y="442.97" width="287.721" height="304.751" filterUnits="userSpaceOnUse" color-interpolation-filters="sRGB">
<feFlood flood-opacity="0" result="BackgroundImageFix"/>
<feBlend mode="normal" in="SourceGraphic" in2="BackgroundImageFix" result="shape"/>
<feGaussianBlur stdDeviation="13.195" result="effect1_foregroundBlur_3001_907"/>
</filter>
<filter id="filter14_f_3001_907" x="304.409" y="376.479" width="365.562" height="381.411" filterUnits="userSpaceOnUse" color-interpolation-filters="sRGB">
<feFlood flood-opacity="0" result="BackgroundImageFix"/>
<feBlend mode="normal" in="SourceGraphic" in2="BackgroundImageFix" result="shape"/>
<feGaussianBlur stdDeviation="18.8499" result="effect1_foregroundBlur_3001_907"/>
</filter>
<filter id="filter15_f_3001_907" x="198.507" y="341.5" width="520.208" height="483.378" filterUnits="userSpaceOnUse" color-interpolation-filters="sRGB">
<feFlood flood-opacity="0" result="BackgroundImageFix"/>
<feBlend mode="normal" in="SourceGraphic" in2="BackgroundImageFix" result="shape"/>
<feGaussianBlur stdDeviation="50.8948" result="effect1_foregroundBlur_3001_907"/>
</filter>
<filter id="filter16_f_3001_907" x="0.625641" y="183.569" width="831.85" height="792.527" filterUnits="userSpaceOnUse" color-interpolation-filters="sRGB">
<feFlood flood-opacity="0" result="BackgroundImageFix"/>
<feBlend mode="normal" in="SourceGraphic" in2="BackgroundImageFix" result="shape"/>
<feGaussianBlur stdDeviation="126.295" result="effect1_foregroundBlur_3001_907"/>
</filter>
<filter id="filter17_f_3001_907" x="218.064" y="305.157" width="528.983" height="501.867" filterUnits="userSpaceOnUse" color-interpolation-filters="sRGB">
<feFlood flood-opacity="0" result="BackgroundImageFix"/>
<feBlend mode="normal" in="SourceGraphic" in2="BackgroundImageFix" result="shape"/>
<feGaussianBlur stdDeviation="58.4348" result="effect1_foregroundBlur_3001_907"/>
</filter>
</defs>
</svg>
