<svg id="Layer_1" data-name="Layer 1" xmlns="http://www.w3.org/2000/svg" viewBox="0 0 700 400"><defs><style>.cls-1{fill:#4e9fe8;}.cls-2{fill:#333333;}</style></defs><path class="cls-1" d="M171.84,124.06a6.2,6.2,0,0,1-3.09-.82l-34.2-19.48a6.25,6.25,0,0,1,6.18-10.87l34.21,19.49a6.25,6.25,0,0,1-3.1,11.68Z"/><path class="cls-1" d="M172,145.19a6.3,6.3,0,0,1-3.09-.82l-51.31-29.24a6.25,6.25,0,0,1,6.18-10.86l51.32,29.23a6.25,6.25,0,0,1-3.1,11.69Z"/><path class="cls-1" d="M172,166.07a6.2,6.2,0,0,1-3.09-.82l-68.63-39.09a6.25,6.25,0,0,1,6.19-10.87l68.63,39.1a6.25,6.25,0,0,1-3.1,11.68Z"/><path class="cls-1" d="M106.52,275.94a6.2,6.2,0,0,1,3.09.82l34.2,19.48a6.25,6.25,0,0,1-6.19,10.87l-34.2-19.49a6.25,6.25,0,0,1,3.1-11.68Z"/><path class="cls-1" d="M106.41,254.81a6.3,6.3,0,0,1,3.09.82l51.31,29.24a6.25,6.25,0,0,1-6.18,10.86L103.31,266.5a6.25,6.25,0,0,1,3.1-11.69Z"/><path class="cls-1" d="M106.41,233.93a6.2,6.2,0,0,1,3.09.82l68.63,39.09a6.25,6.25,0,0,1-6.19,10.87l-68.63-39.1a6.25,6.25,0,0,1,3.1-11.68Z"/><path class="cls-1" d="M226.59,244.05a6.32,6.32,0,0,0-3.1.78l-34.45,19a6.26,6.26,0,0,0,6.05,10.95l34.45-19a6.25,6.25,0,0,0-2.95-11.72Z"/><path class="cls-1" d="M227,222.93a6.25,6.25,0,0,0-3.09.78l-51.69,28.57a6.25,6.25,0,0,0,6,10.94l51.69-28.57A6.25,6.25,0,0,0,227,222.93Z"/><path class="cls-1" d="M227.24,202a6.16,6.16,0,0,0-3.09.79L155,241a6.25,6.25,0,1,0,6,10.94l69.13-38.2A6.26,6.26,0,0,0,227.24,202Z"/><path class="cls-1" d="M51.42,156.68a6.32,6.32,0,0,0,3.1-.78l34.45-19a6.26,6.26,0,1,0-6-11L48.47,145a6.25,6.25,0,0,0,3,11.72Z"/><path class="cls-1" d="M51,177.8a6.29,6.29,0,0,0,3.1-.78l51.69-28.57a6.25,6.25,0,1,0-6-10.94L48.09,166.08A6.25,6.25,0,0,0,51,177.8Z"/><path class="cls-1" d="M50.77,198.69a6.19,6.19,0,0,0,3.09-.79L123,159.7a6.25,6.25,0,1,0-6-10.94L47.82,187a6.26,6.26,0,0,0,3,11.73Z"/><path class="cls-1" d="M227.12,194.85h0a6.26,6.26,0,0,1-6.25-6.26l0-39.37a6.24,6.24,0,0,1,6.25-6.24h0a6.25,6.25,0,0,1,6.24,6.26l0,39.36A6.27,6.27,0,0,1,227.12,194.85Z"/><path class="cls-1" d="M208.81,203.77h0a6.25,6.25,0,0,1-6.25-6.26l.07-59.06a6.25,6.25,0,0,1,6.25-6.24h0a6.25,6.25,0,0,1,6.24,6.26l-.07,59.06A6.24,6.24,0,0,1,208.81,203.77Z"/><path class="cls-1" d="M190.65,213.19h0a6.25,6.25,0,0,1-6.24-6.26l.09-79a6.25,6.25,0,0,1,6.25-6.24h0A6.24,6.24,0,0,1,197,128l-.09,79A6.24,6.24,0,0,1,190.65,213.19Z"/><path class="cls-1" d="M51.34,261.32h0a6.25,6.25,0,0,0,6.25-6.26l-.05-39.36a6.25,6.25,0,0,0-6.25-6.25h0A6.26,6.26,0,0,0,45,215.71l.05,39.37A6.24,6.24,0,0,0,51.34,261.32Z"/><path class="cls-1" d="M69.65,270.24h0A6.24,6.24,0,0,0,75.9,264l-.07-59.06a6.24,6.24,0,0,0-6.25-6.24h0a6.24,6.24,0,0,0-6.24,6.25L63.4,264A6.24,6.24,0,0,0,69.65,270.24Z"/><path class="cls-1" d="M87.81,279.67h0a6.25,6.25,0,0,0,6.24-6.26l-.09-79a6.25,6.25,0,0,0-6.25-6.25h0a6.25,6.25,0,0,0-6.24,6.26l.09,79A6.25,6.25,0,0,0,87.81,279.67Z"/><path class="cls-2" d="M289.86,164.65h20.58a37.81,37.81,0,0,1,11.36,1.65,17.92,17.92,0,0,1,8.53,5.49q3.27,3.84,3.27,10.48a18.07,18.07,0,0,1-1.7,8,17.31,17.31,0,0,1-4.34,5.74,12.46,12.46,0,0,1-5.54,2.82c1.64.19,5.8.68,7.52,1.48a17.58,17.58,0,0,1,4.77,3.35,15.76,15.76,0,0,1,3.54,5.38,19.62,19.62,0,0,1,1.35,7.58,21.38,21.38,0,0,1-2.61,10.67,18,18,0,0,1-7.68,7.25,27.53,27.53,0,0,1-12.6,2.6H289.86Zm13.72,30h8.72a10.69,10.69,0,0,0,5.63-1.35,8.79,8.79,0,0,0,3.38-3.62,10.94,10.94,0,0,0,1.15-5q0-5.16-3-7.08a14.89,14.89,0,0,0-8.1-1.92h-7.79Zm0,31.34h9.93a13.82,13.82,0,0,0,6.67-1.38,8.2,8.2,0,0,0,3.6-3.73,12.61,12.61,0,0,0,1.09-5.38q0-4.83-3.07-7.41t-8.73-2.58h-9.49Z"/><path class="cls-2" d="M386.76,237.1v-7.85a13.63,13.63,0,0,1-2.53,3.41,19.77,19.77,0,0,1-5.46,4,17.33,17.33,0,0,1-8,1.78,21.07,21.07,0,0,1-19.29-11.61,27.75,27.75,0,0,1,0-24.42,21.72,21.72,0,0,1,7.82-8.54,21.19,21.19,0,0,1,11.47-3.13,18.64,18.64,0,0,1,13.2,5,10.69,10.69,0,0,1,2.66,3.59V192h13.83V237.1Zm-24.48-22.5a12.83,12.83,0,0,0,1.7,6.67,12.14,12.14,0,0,0,10.59,6.06,11.42,11.42,0,0,0,10.4-6.12A14.7,14.7,0,0,0,385,208a11.74,11.74,0,0,0-4.25-4.53,11.51,11.51,0,0,0-6.15-1.65,12,12,0,0,0-6.09,1.62,12.29,12.29,0,0,0-4.5,4.5A12.8,12.8,0,0,0,362.28,214.6Z"/><path class="cls-2" d="M430.39,237.1h-14V161.58h14Z"/><path class="cls-2" d="M440.6,192h8.12V173.55h13.83V192H473.2v11.58H462.55v16.3a10.11,10.11,0,0,0,1,5,3.56,3.56,0,0,0,3.3,1.78,5.15,5.15,0,0,0,2.79-.69,6,6,0,0,0,1.32-1l4.94,10a9.51,9.51,0,0,1-2.11,1.15,25.27,25.27,0,0,1-4.56,1.51,25.82,25.82,0,0,1-6.23.69,14.9,14.9,0,0,1-10.26-3.6c-2.71-2.39-4.06-6.12-4.06-11.16v-20H440.6Z"/><path class="cls-2" d="M493.06,180.41a8.21,8.21,0,0,1-8.23-8.18,8.07,8.07,0,0,1,2.42-5.82,8.07,8.07,0,0,1,9.93-1.34,8.82,8.82,0,0,1,3,3,8.06,8.06,0,0,1-1.29,9.93A8,8,0,0,1,493.06,180.41Zm-7.13,56.69V192h13.89V237.1Z"/><path class="cls-2" d="M538,227.33a12.33,12.33,0,0,0,5.82-1.2,19.18,19.18,0,0,0,3-1.82l6.48,9.61a22,22,0,0,1-2.86,1.7,25.76,25.76,0,0,1-5.29,1.95,28.61,28.61,0,0,1-7.33.85A27.77,27.77,0,0,1,525,235.54a21.93,21.93,0,0,1-8.92-8.23,26.66,26.66,0,0,1,0-25.55,21.74,21.74,0,0,1,8.92-8.18,28,28,0,0,1,12.79-2.86,26.81,26.81,0,0,1,12.51,2.89,17.54,17.54,0,0,1,3,1.83l-6.64,9.66a9.32,9.32,0,0,0-1.48-1.2,13.16,13.16,0,0,0-2.89-1.43,12.24,12.24,0,0,0-4.25-.66,11.23,11.23,0,0,0-5.74,1.59,12.38,12.38,0,0,0-4.41,4.45,12.75,12.75,0,0,0-1.7,6.69,12.92,12.92,0,0,0,1.7,6.73,12.28,12.28,0,0,0,4.41,4.47A11.23,11.23,0,0,0,538,227.33Z"/><path class="cls-2" d="M586.2,164.65H600l27.88,72.45h-14.6l-5.65-15.64h-29l-5.76,15.64H558.21Zm-3.07,44.68h20l-9.94-28.1H593Z"/><path class="cls-2" d="M641.69,164.65h13.72V237.1H641.69Z"/></svg>
