<svg width="196" height="99" viewBox="0 0 196 99" fill="none" xmlns="http://www.w3.org/2000/svg">
<g clip-path="url(#clip0_29_429)">
<path d="M51.8267 121C39.5867 121 29.7467 118.66 22.3067 113.98C14.8667 109.18 9.40672 102.34 5.92672 93.46C2.56672 84.46 0.886719 73.72 0.886719 61.24C0.886719 48.28 2.50672 37.24 5.74672 28.12C9.10672 19 14.5067 12.04 21.9467 7.24004C29.3867 2.44004 39.3467 0.0400391 51.8267 0.0400391C64.3067 0.0400391 74.2067 2.44004 81.5267 7.24004C88.9667 12.04 94.3067 19 97.5467 28.12C100.907 37.24 102.587 48.28 102.587 61.24C102.587 73.72 100.907 84.46 97.5467 93.46C94.1867 102.34 88.7867 109.18 81.3467 113.98C73.9067 118.66 64.0667 121 51.8267 121ZM51.8267 104.26C63.3467 104.26 71.3867 100.48 75.9467 92.92C80.5067 85.24 82.7867 74.68 82.7867 61.24C82.7867 46.96 80.5667 35.98 76.1267 28.3C71.6867 20.62 63.5867 16.78 51.8267 16.78C40.0667 16.78 31.9067 20.62 27.3467 28.3C22.9067 35.98 20.6867 46.96 20.6867 61.24C20.6867 74.68 22.9667 85.24 27.5267 92.92C32.0867 100.48 40.1867 104.26 51.8267 104.26Z" fill="url(#paint0_linear_29_429)"/>
<path d="M151.073 119.56C147.593 119.56 143.753 119.32 139.553 118.84C135.353 118.48 131.333 117.88 127.493 117.04C123.773 116.2 120.653 115.3 118.133 114.34V97.24C122.933 99.16 127.853 100.6 132.893 101.56C138.053 102.4 143.213 102.82 148.373 102.82C157.733 102.82 164.693 101.44 169.253 98.68C173.813 95.92 176.093 91.06 176.093 84.1C176.093 77.86 173.993 73.36 169.793 70.6C165.713 67.84 159.833 66.46 152.153 66.46H134.693L136.313 51.88H150.893C166.133 51.88 173.753 45.88 173.753 33.88C173.753 28 171.713 23.68 167.633 20.92C163.673 18.16 157.253 16.78 148.373 16.78C143.453 16.78 138.473 17.26 133.433 18.22C128.513 19.18 124.133 20.5 120.293 22.18V5.44004C123.893 4.00004 128.573 2.74004 134.333 1.66004C140.093 0.580039 145.793 0.0400391 151.433 0.0400391C165.593 0.0400391 176.093 3.04004 182.933 9.04004C189.893 15.04 193.373 22.72 193.373 32.08C193.373 37.84 191.933 43.24 189.053 48.28C186.293 53.32 181.913 56.92 175.913 59.08C182.873 60.88 187.913 64.12 191.033 68.8C194.273 73.48 195.893 79 195.893 85.36C195.893 97 191.813 105.64 183.653 111.28C175.493 116.8 164.633 119.56 151.073 119.56Z" fill="url(#paint1_linear_29_429)"/>
<g filter="url(#filter0_f_29_429)">
<ellipse cx="98.5" cy="142.5" rx="93.5" ry="39.5" fill="white" fill-opacity="0.5"/>
</g>
</g>
<defs>
<filter id="filter0_f_29_429" x="-45" y="53" width="287" height="179" filterUnits="userSpaceOnUse" color-interpolation-filters="sRGB">
<feFlood flood-opacity="0" result="BackgroundImageFix"/>
<feBlend mode="normal" in="SourceGraphic" in2="BackgroundImageFix" result="shape"/>
<feGaussianBlur stdDeviation="25" result="effect1_foregroundBlur_29_429"/>
</filter>
<linearGradient id="paint0_linear_29_429" x1="127.491" y1="-81.309" x2="127.491" y2="191.435" gradientUnits="userSpaceOnUse">
<stop stop-color="white"/>
<stop offset="1" stop-color="white" stop-opacity="0.3"/>
</linearGradient>
<linearGradient id="paint1_linear_29_429" x1="127.491" y1="-81.309" x2="127.491" y2="191.435" gradientUnits="userSpaceOnUse">
<stop stop-color="white"/>
<stop offset="1" stop-color="white" stop-opacity="0.3"/>
</linearGradient>
<clipPath id="clip0_29_429">
<rect width="195" height="99" fill="white" transform="translate(0.5)"/>
</clipPath>
</defs>
</svg>
