<svg width="54" height="60" viewBox="0 0 54 60" fill="none" xmlns="http://www.w3.org/2000/svg">
<path d="M25.5417 59.1666C13.8548 59.1666 8.01131 59.1666 4.38066 54.8952C0.750001 50.6239 0.750001 43.7492 0.75 29.9999C0.749999 16.2506 0.749999 9.37597 4.38065 5.10461C8.01131 0.833254 13.8548 0.833252 25.5417 0.833252C37.2286 0.833251 43.072 0.833252 46.7027 5.10461C49.6253 8.54294 50.1952 13.6682 50.3064 22.7083" stroke="white" stroke-width="3" stroke-linecap="round" stroke-linejoin="round"/>
<path d="M15.334 18.3342H35.7506M15.334 32.9176H24.084" stroke="white" stroke-width="3" stroke-linecap="round" stroke-linejoin="round"/>
<path d="M49.1943 47.8083C51.6527 46.0187 53.2506 43.1183 53.2506 39.8447C53.2506 34.4082 48.8435 30.001 43.4069 30.001H42.6777C37.2412 30.001 32.834 34.4082 32.834 39.8447C32.834 43.1183 34.4319 46.0187 36.8903 47.8083M49.1943 47.8083C47.5699 48.9909 45.5699 49.6885 43.4069 49.6885H42.6777C40.5148 49.6885 38.5147 48.9909 36.8903 47.8083M49.1943 47.8083L50.8941 53.1606C51.5424 55.2019 51.8666 56.2225 51.7779 56.8582C51.5934 58.181 50.5146 59.163 49.2409 59.1676C48.6288 59.1699 47.7119 58.6887 45.8782 57.7264C45.0918 57.3138 44.6986 57.1074 44.2964 56.9861C43.4769 56.739 42.6077 56.739 41.7883 56.9861C41.386 57.1074 40.9928 57.3138 40.2064 57.7264C38.3727 58.6887 37.4559 59.1699 36.8437 59.1676C35.57 59.163 34.4912 58.181 34.3067 56.8582C34.218 56.2225 34.5422 55.2019 35.1905 53.1606L36.8903 47.8083" stroke="white" stroke-width="3"/>
</svg>
