<svg width="24" height="25" viewBox="0 0 24 25" fill="none" xmlns="http://www.w3.org/2000/svg">
<path d="M6.66667 8.84197C8.13943 8.84197 9.33333 7.64613 9.33333 6.17098C9.33333 4.69584 8.13943 3.5 6.66667 3.5C5.19391 3.5 4 4.69584 4 6.17098C4 7.64613 5.19391 8.84197 6.66667 8.84197ZM6.66667 8.84197V20.5667M17.3333 15.2247C18.8061 15.2247 20 16.4205 20 17.8957C20 19.3708 18.8061 20.5667 17.3333 20.5667C15.8606 20.5667 14.6667 19.3708 14.6667 17.8957C14.6667 16.4205 15.8606 15.2247 17.3333 15.2247ZM17.3333 15.2247V8.87757C17.3333 7.40481 16.1394 6.2109 14.6667 6.2109H13.0667" stroke="#1D82DD" stroke-width="2" stroke-linecap="round" stroke-linejoin="round"/>
</svg>
