<svg width="228" height="96" viewBox="0 0 228 96" fill="none" xmlns="http://www.w3.org/2000/svg">
<g clip-path="url(#clip0_29_415)">
<path d="M88.817 121.24C76.577 121.24 66.737 118.9 59.297 114.22C51.857 109.42 46.397 102.58 42.917 93.7003C39.557 84.7003 37.877 73.9603 37.877 61.4803C37.877 48.5203 39.497 37.4803 42.737 28.3603C46.097 19.2403 51.497 12.2803 58.937 7.48028C66.377 2.68027 76.337 0.280273 88.817 0.280273C101.297 0.280273 111.197 2.68027 118.517 7.48028C125.957 12.2803 131.297 19.2403 134.537 28.3603C137.897 37.4803 139.577 48.5203 139.577 61.4803C139.577 73.9603 137.897 84.7003 134.537 93.7003C131.177 102.58 125.777 109.42 118.337 114.22C110.897 118.9 101.057 121.24 88.817 121.24ZM88.817 104.5C100.337 104.5 108.377 100.72 112.937 93.1603C117.497 85.4803 119.777 74.9203 119.777 61.4803C119.777 47.2003 117.557 36.2203 113.117 28.5403C108.677 20.8603 100.577 17.0203 88.817 17.0203C77.057 17.0203 68.897 20.8603 64.337 28.5403C59.897 36.2203 57.677 47.2003 57.677 61.4803C57.677 74.9203 59.957 85.4803 64.517 93.1603C69.077 100.72 77.177 104.5 88.817 104.5Z" fill="url(#paint0_linear_29_415)"/>
<path d="M173.843 118V19.3603L155.123 22.6003V6.22027L193.283 0.280273V118H173.843Z" fill="url(#paint1_linear_29_415)"/>
<g filter="url(#filter0_f_29_415)">
<ellipse cx="116.5" cy="142.5" rx="93.5" ry="39.5" fill="white" fill-opacity="0.5"/>
</g>
</g>
<defs>
<filter id="filter0_f_29_415" x="-27" y="53" width="287" height="179" filterUnits="userSpaceOnUse" color-interpolation-filters="sRGB">
<feFlood flood-opacity="0" result="BackgroundImageFix"/>
<feBlend mode="normal" in="SourceGraphic" in2="BackgroundImageFix" result="shape"/>
<feGaussianBlur stdDeviation="25" result="effect1_foregroundBlur_29_415"/>
</filter>
<linearGradient id="paint0_linear_29_415" x1="138.772" y1="-81.0687" x2="138.772" y2="191.675" gradientUnits="userSpaceOnUse">
<stop stop-color="white"/>
<stop offset="1" stop-color="white" stop-opacity="0.3"/>
</linearGradient>
<linearGradient id="paint1_linear_29_415" x1="138.772" y1="-81.0687" x2="138.772" y2="191.675" gradientUnits="userSpaceOnUse">
<stop stop-color="white"/>
<stop offset="1" stop-color="white" stop-opacity="0.3"/>
</linearGradient>
<clipPath id="clip0_29_415">
<rect width="228" height="96" fill="white"/>
</clipPath>
</defs>
</svg>
