<svg width="194" height="97" viewBox="0 0 194 97" fill="none" xmlns="http://www.w3.org/2000/svg">
<g clip-path="url(#clip0_29_422)">
<path d="M51.44 121C39.2 121 29.36 118.66 21.92 113.98C14.48 109.18 9.02 102.34 5.54 93.46C2.18 84.46 0.5 73.72 0.5 61.24C0.5 48.28 2.12 37.24 5.36 28.12C8.72 19 14.12 12.04 21.56 7.24004C29 2.44004 38.96 0.0400391 51.44 0.0400391C63.92 0.0400391 73.82 2.44004 81.14 7.24004C88.58 12.04 93.92 19 97.16 28.12C100.52 37.24 102.2 48.28 102.2 61.24C102.2 73.72 100.52 84.46 97.16 93.46C93.8 102.34 88.4 109.18 80.96 113.98C73.52 118.66 63.68 121 51.44 121ZM51.44 104.26C62.96 104.26 71 100.48 75.56 92.92C80.12 85.24 82.4 74.68 82.4 61.24C82.4 46.96 80.18 35.98 75.74 28.3C71.3 20.62 63.2 16.78 51.44 16.78C39.68 16.78 31.52 20.62 26.96 28.3C22.52 35.98 20.3 46.96 20.3 61.24C20.3 74.68 22.58 85.24 27.14 92.92C31.7 100.48 39.8 104.26 51.44 104.26Z" fill="url(#paint0_linear_29_422)"/>
<path d="M117.746 117.76V108.04C120.866 100.72 125.186 94.12 130.706 88.24C136.346 82.36 142.346 76.66 148.706 71.14C153.506 66.94 157.466 63.4 160.586 60.52C163.826 57.52 166.346 54.82 168.146 52.42C169.946 50.02 171.206 47.56 171.926 45.04C172.646 42.4 173.006 39.34 173.006 35.86C173.006 29.62 171.206 24.88 167.606 21.64C164.006 18.4 158.006 16.78 149.606 16.78C145.046 16.78 140.366 17.26 135.566 18.22C130.886 19.18 126.386 20.5 122.066 22.18V4.90004C126.266 3.46004 131.246 2.32004 137.006 1.48004C142.766 0.52004 148.226 0.0400391 153.386 0.0400391C166.346 0.0400391 176.126 3.22004 182.726 9.58004C189.326 15.94 192.626 24.64 192.626 35.68C192.626 41.2 191.666 46.12 189.746 50.44C187.826 54.64 185.186 58.66 181.826 62.5C178.466 66.22 174.566 70.06 170.126 74.02C164.606 78.82 159.386 83.5 154.466 88.06C149.666 92.5 145.766 97.36 142.766 102.64H193.886V117.76H117.746Z" fill="url(#paint1_linear_29_422)"/>
<g filter="url(#filter0_f_29_422)">
<ellipse cx="97.5" cy="142.5" rx="93.5" ry="39.5" fill="white" fill-opacity="0.5"/>
</g>
</g>
<defs>
<filter id="filter0_f_29_422" x="-46" y="53" width="287" height="179" filterUnits="userSpaceOnUse" color-interpolation-filters="sRGB">
<feFlood flood-opacity="0" result="BackgroundImageFix"/>
<feBlend mode="normal" in="SourceGraphic" in2="BackgroundImageFix" result="shape"/>
<feGaussianBlur stdDeviation="25" result="effect1_foregroundBlur_29_422"/>
</filter>
<linearGradient id="paint0_linear_29_422" x1="126.053" y1="-81.309" x2="126.053" y2="191.435" gradientUnits="userSpaceOnUse">
<stop stop-color="white"/>
<stop offset="1" stop-color="white" stop-opacity="0.3"/>
</linearGradient>
<linearGradient id="paint1_linear_29_422" x1="126.053" y1="-81.309" x2="126.053" y2="191.435" gradientUnits="userSpaceOnUse">
<stop stop-color="white"/>
<stop offset="1" stop-color="white" stop-opacity="0.3"/>
</linearGradient>
<clipPath id="clip0_29_422">
<rect width="193" height="97" fill="white" transform="translate(0.5)"/>
</clipPath>
</defs>
</svg>
